{
  "accessors": [
    {
      "bufferView": 2,
      "componentType": 5126,
      "count": 65532,
      "max": [
        1.91286301612854,
        9.0583524703979492,
        0.51981401443481445
      ],
      "min": [
        -0.064963996410369873,
        8.1483545303344727,
        -1.2657719850540161
      ],
      "type": "VEC3"
    },
    {
      "bufferView": 2,
      "byteOffset": 786384,
      "componentType": 5126,
      "count": 65532,
      "max": [
        0.9998968243598938,
        0.99999523162841797,
        0.99995195865631104
      ],
      "min": [
        -0.99949502944946289,
        -0.99998635053634644,
        -0.99999690055847168
      ],
      "type": "VEC3"
    },
    {
      "bufferView": 1,
      "componentType": 5126,
      "count": 65532,
      "max": [
        0.82745599746704102,
        0.99987101554870605
      ],
      "min": [
        0,
        0.00068400002783164382
      ],
      "type": "VEC2"
    },
    {
      "bufferView": 0,
      "componentType": 5125,
      "count": 370656,
      "max": [
        65531
      ],
      "min": [
        0
      ],
      "type": "SCALAR"
    },
    {
      "bufferView": 2,
      "byteOffset": 1572768,
      "componentType": 5126,
      "count": 56311,
      "max": [
        1.3493930101394653,
        9.0528087615966797,
        0.68115198612213135
      ],
      "min": [
        -0.29746299982070923,
        8.1743135452270508,
        -1.1114499568939209
      ],
      "type": "VEC3"
    },
    {
      "bufferView": 2,
      "byteOffset": 2248500,
      "componentType": 5126,
      "count": 56311,
      "max": [
        0.99910467863082886,
        0.99999076128005981,
        0.99995505809783936
      ],
      "min": [
        -0.99998682737350464,
        -0.9999997615814209,
        -0.99999666213989258
      ],
      "type": "VEC3"
    },
    {
      "bufferView": 1,
      "byteOffset": 524256,
      "componentType": 5126,
      "count": 56311,
      "max": [
        0.98833101987838745,
        1
      ],
      "min": [
        0.01309099979698658,
        0.00038400001358240843
      ],
      "type": "VEC2"
    },
    {
      "bufferView": 0,
      "byteOffset": 1482624,
      "componentType": 5125,
      "count": 303348,
      "max": [
        56310
      ],
      "min": [
        0
      ],
      "type": "SCALAR"
    }
  ],
  "asset": {
    "extras": {
      "author": "Digital Atlas of Ancient Life (https://sketchfab.com/DigitalAtlasOfAncientLife)",
      "license": "CC0-1.0 (http://creativecommons.org/publicdomain/zero/1.0/)",
      "source": "https://sketchfab.com/3d-models/brachiopods-8f6bd1dc86a64986874028e43754d6d5",
      "title": "Brachiopods"
    },
    "generator": "Sketchfab-7.80.0",
    "version": "2.0"
  },
  "bufferViews": [
    {
      "buffer": 0,
      "byteLength": 2696016,
      "byteOffset": 0,
      "name": "floatBufferViews",
      "target": 34963
    },
    {
      "buffer": 0,
      "byteLength": 974744,
      "byteOffset": 2696016,
      "byteStride": 8,
      "name": "floatBufferViews",
      "target": 34962
    },
    {
      "buffer": 0,
      "byteLength": 2924232,
      "byteOffset": 3670760,
      "byteStride": 12,
      "name": "floatBufferViews",
      "target": 34962
    }
  ],
  "buffers": [
    {
      "byteLength": 6594992,
      "uri": "scene.bin"
    }
  ],
  "extensionsUsed": [
    "KHR_materials_unlit"
  ],
  "images": [
    {
      "uri": "textures/PRI_Brachiopodslab_baseColor.jpeg"
    }
  ],
  "materials": [
    {
      "doubleSided": true,
      "emissiveFactor": [
        0,
        0,
        0
      ],
      "extensions": {
        "KHR_materials_unlit": {}
      },
      "name": "PRI_Brachiopodslab",
      "pbrMetallicRoughness": {
        "baseColorFactor": [
          1,
          1,
          1,
          1
        ],
        "baseColorTexture": {
          "index": 0,
          "texCoord": 0
        },
        "metallicFactor": 0,
        "roughnessFactor": 1
      }
    }
  ],
  "meshes": [
    {
      "primitives": [
        {
          "attributes": {
            "NORMAL": 1,
            "POSITION": 0,
            "TEXCOORD_0": 2
          },
          "indices": 3,
          "material": 0,
          "mode": 4
        }
      ]
    },
    {
      "primitives": [
        {
          "attributes": {
            "NORMAL": 5,
            "POSITION": 4,
            "TEXCOORD_0": 6
          },
          "indices": 7,
          "material": 0,
          "mode": 4
        }
      ]
    }
  ],
  "nodes": [
    {
      "children": [
        1
      ],
      "name": "RootNode (gltf orientation matrix)",
      "rotation": [
        -0.70710678118654746,
        -0,
        -0,
        0.70710678118654757
      ]
    },
    {
      "children": [
        2
      ],
      "matrix": [
        0.96601361036300659,
        0.24508680403232574,
        -0.082159429788589478,
        0,
        -0.25763034820556641,
        0.88695091009140015,
        -0.38333362340927124,
        0,
        -0.021078627556562424,
        0.39147225022315979,
        0.91994845867156982,
        0,
        2.2377731800079346,
        0.88907468318939209,
        3.3409132957458496,
        1
      ],
      "name": "RootNode (model correction matrix)"
    },
    {
      "children": [
        3,
        4
      ],
      "name": "PRI_Brachiopodslab.obj.cleaner.materialmerger.gles"
    },
    {
      "mesh": 0,
      "name": ""
    },
    {
      "mesh": 1,
      "name": ""
    }
  ],
  "samplers": [
    {
      "magFilter": 9729,
      "minFilter": 9987,
      "wrapS": 10497,
      "wrapT": 10497
    }
  ],
  "scene": 0,
  "scenes": [
    {
      "name": "OSG_Scene",
      "nodes": [
        0
      ]
    }
  ],
  "textures": [
    {
      "sampler": 0,
      "source": 0
    }
  ]
}

